<svg xmlns="http://www.w3.org/2000/svg" width="16" height="13" viewBox="0 0 16 13"><g><g><g><path fill="#fff" d="M2.182 11.636a.728.728 0 0 1-.727-.727V2.182c0-.401.326-.727.727-.727h11.636c.401 0 .728.326.728.727v8.727a.728.728 0 0 1-.728.727zM0 2.182v8.727c0 1.203.979 2.182 2.182 2.182h11.636A2.184 2.184 0 0 0 16 10.909V2.182A2.184 2.184 0 0 0 13.818 0H2.182A2.184 2.184 0 0 0 0 2.182z"/></g><g><path fill="#fff" d="M8 8a.726.726 0 0 1-.417-.132L.31 2.778a.727.727 0 1 1 .834-1.192L8 6.385l6.856-4.799a.727.727 0 1 1 .834 1.192l-7.273 5.09A.726.726 0 0 1 8 8z"/></g></g></g></svg>