<svg xmlns="http://www.w3.org/2000/svg" width="14" height="16" viewBox="0 0 14 16"><g><g><g><path fill="#fff" d="M1.667 6.667A5.34 5.34 0 0 1 7 1.333a5.34 5.34 0 0 1 5.333 5.334c0 3.609-4.068 6.909-5.333 7.847-1.265-.939-5.333-4.238-5.333-7.847zM7 0C5.22 0 3.545.693 2.286 1.953A6.623 6.623 0 0 0 .333 6.667c0 1.177.343 2.402 1.02 3.642.525.963 1.253 1.938 2.163 2.9a20.229 20.229 0 0 0 3.114 2.679c.224.15.516.15.74 0a20.23 20.23 0 0 0 3.114-2.68c.91-.96 1.639-1.936 2.164-2.9.676-1.239 1.019-2.464 1.019-3.641 0-1.781-.694-3.455-1.953-4.714A6.623 6.623 0 0 0 7 0z"/></g><g><path fill="#fff" d="M5.667 6.667c0-.736.598-1.334 1.333-1.334s1.333.598 1.333 1.334C8.333 7.402 7.735 8 7 8a1.335 1.335 0 0 1-1.333-1.333zm-1.334 0A2.67 2.67 0 0 0 7 9.333a2.67 2.67 0 0 0 2.667-2.666A2.67 2.67 0 0 0 7 4a2.67 2.67 0 0 0-2.667 2.667z"/></g></g></g></svg>