<svg xmlns="http://www.w3.org/2000/svg" width="36" height="36" viewBox="0 0 36 36"><defs><clipPath id="8tzla"><path fill="#fff" d="M0 18C0 8.059 8.059 0 18 0s18 8.059 18 18-8.059 18-18 18S0 27.941 0 18z"/></clipPath></defs><g><g><g><path fill="#fff" d="M25.857 8H10.143C8.959 8 8 8.96 8 10.143v15.714C8 27.041 8.96 28 10.143 28h6.127v-6.8h-2.812V18h2.812v-2.44c0-2.774 1.652-4.306 4.182-4.306 1.211 0 2.478.216 2.478.216v2.723h-1.396c-1.375 0-1.804.853-1.804 1.729V18h3.07l-.49 3.2h-2.58V28h6.127C27.041 28 28 27.04 28 25.857V10.143C28 8.959 27.04 8 25.857 8z"/></g><g><path fill="none" stroke="#fff" stroke-miterlimit="20" stroke-width="2" d="M0 18C0 8.059 8.059 0 18 0s18 8.059 18 18-8.059 18-18 18S0 27.941 0 18z" clip-path="url(&quot;#8tzla&quot;)"/></g></g></g></svg>