<svg xmlns="http://www.w3.org/2000/svg" width="36" height="36" viewBox="0 0 36 36"><defs><clipPath id="otfna"><path fill="#fff" d="M0 18C0 8.059 8.059 0 18 0s18 8.059 18 18-8.059 18-18 18S0 27.941 0 18z"/></clipPath></defs><g><g><g><path fill="#fff" d="M26.199 17.998c0-1.455.12-4.578-.402-5.894a3.374 3.374 0 0 0-1.9-1.901c-1.312-.518-4.44-.402-5.895-.402-1.454 0-4.577-.12-5.894.402a3.374 3.374 0 0 0-1.9 1.9c-.518 1.312-.402 4.44-.402 5.895 0 1.454-.12 4.577.402 5.894a3.374 3.374 0 0 0 1.9 1.9c1.312.518 4.44.402 5.894.402 1.455 0 4.578.12 5.894-.402a3.374 3.374 0 0 0 1.901-1.9c.522-1.312.402-4.44.402-5.894zm1.73 4.122c-.08 1.602-.445 3.021-1.614 4.19-1.17 1.173-2.588 1.54-4.19 1.615-1.65.094-6.599.094-8.25 0-1.602-.08-3.016-.446-4.19-1.615-1.173-1.169-1.539-2.588-1.615-4.19-.093-1.65-.093-6.599 0-8.25.08-1.601.442-3.02 1.616-4.19 1.173-1.168 2.592-1.534 4.19-1.61 1.65-.094 6.598-.094 8.249 0 1.602.08 3.02.446 4.19 1.615 1.173 1.17 1.539 2.588 1.615 4.19.094 1.65.094 6.595 0 8.245zm-3.395-9.459c0 .665-.535 1.196-1.195 1.196a1.196 1.196 0 1 1 1.196-1.196zm-3.199 5.337a3.336 3.336 0 0 0-3.333-3.333 3.336 3.336 0 0 0-3.333 3.333c0 1.838 1.5 3.333 3.333 3.333a3.339 3.339 0 0 0 3.333-3.333zm1.794 0a5.118 5.118 0 0 1-5.127 5.126 5.118 5.118 0 0 1-5.126-5.126 5.118 5.118 0 0 1 5.126-5.127 5.118 5.118 0 0 1 5.127 5.127z"/></g><g><path fill="none" stroke="#fff" stroke-miterlimit="20" stroke-width="2" d="M0 18C0 8.059 8.059 0 18 0s18 8.059 18 18-8.059 18-18 18S0 27.941 0 18z" clip-path="url(&quot;#otfna&quot;)"/></g></g></g></svg>