<svg xmlns="http://www.w3.org/2000/svg" width="21" height="20" viewBox="0 0 21 20"><g><g><path fill="#fff" d="M18.938 10c0-1.455.12-4.579-.402-5.895a3.375 3.375 0 0 0-1.901-1.902c-1.312-.517-4.44-.401-5.895-.401-1.455 0-4.58-.12-5.896.401a3.375 3.375 0 0 0-1.9 1.902c-.519 1.312-.402 4.44-.402 5.895 0 1.455-.121 4.579.401 5.895a3.375 3.375 0 0 0 1.901 1.901c1.312.518 4.44.402 5.896.402 1.455 0 4.578.12 5.895-.402a3.375 3.375 0 0 0 1.901-1.9c.522-1.313.402-4.441.402-5.896zm1.731 4.124c-.08 1.602-.446 3.02-1.615 4.19-1.17 1.174-2.589 1.54-4.19 1.616-1.652.093-6.601.093-8.252 0-1.603-.08-3.017-.447-4.191-1.616-1.174-1.17-1.54-2.588-1.615-4.19-.094-1.652-.094-6.601 0-8.252.08-1.602.441-3.021 1.615-4.19C3.595.511 5.014.145 6.611.07c1.652-.094 6.601-.094 8.252 0 1.602.08 3.022.446 4.19 1.616 1.175 1.169 1.54 2.588 1.616 4.19.094 1.652.094 6.596 0 8.248zm-3.396-9.462c0 .665-.535 1.196-1.196 1.196a1.196 1.196 0 1 1 1.196-1.196zM14.073 10a3.337 3.337 0 0 0-3.333-3.334A3.337 3.337 0 0 0 7.406 10a3.34 3.34 0 0 0 3.334 3.334A3.34 3.34 0 0 0 14.073 10zm1.794 0a5.12 5.12 0 0 1-5.127 5.128A5.12 5.12 0 0 1 5.612 10a5.12 5.12 0 0 1 5.128-5.128A5.12 5.12 0 0 1 15.867 10z"/></g></g></svg>