<svg xmlns="http://www.w3.org/2000/svg" width="36" height="36" viewBox="0 0 36 36"><defs><clipPath id="fbawa"><path fill="#fff" d="M0 18C0 8.059 8.059 0 18 0s18 8.059 18 18-8.059 18-18 18S0 27.941 0 18z"/></clipPath></defs><g><g><g><path fill="#fff" d="M22.513 19.987c-.245-.125-1.464-.724-1.692-.804-.227-.085-.392-.125-.558.125-.165.25-.638.804-.785.973-.143.165-.29.188-.536.063-1.455-.728-2.41-1.3-3.37-2.947-.255-.437.254-.406.727-1.352.08-.166.04-.308-.022-.433-.063-.125-.558-1.344-.764-1.84-.2-.482-.406-.415-.558-.424-.143-.009-.308-.009-.473-.009a.917.917 0 0 0-.66.308c-.228.25-.867.849-.867 2.067 0 1.219.889 2.398 1.01 2.563.124.165 1.745 2.665 4.231 3.74 1.572.68 2.188.737 2.974.621.477-.071 1.464-.598 1.67-1.178.205-.58.205-1.076.142-1.179-.058-.111-.223-.174-.469-.294zm-4.517 6.17a8.223 8.223 0 0 1-4.197-1.148l-.299-.179-3.116.817.83-3.04-.196-.312a8.21 8.21 0 0 1-1.26-4.384c0-4.54 3.697-8.237 8.242-8.237 2.2 0 4.268.857 5.821 2.415 1.554 1.558 2.51 3.625 2.505 5.826 0 4.545-3.79 8.241-8.33 8.241zm7.008-15.25A9.836 9.836 0 0 0 17.996 8c-5.465 0-9.911 4.446-9.911 9.91 0 1.746.455 3.452 1.321 4.956L8 28l5.254-1.38a9.88 9.88 0 0 0 4.737 1.206h.005c5.46 0 10.004-4.447 10.004-9.91 0-2.648-1.125-5.135-2.996-7.01z"/></g><g><path fill="none" stroke="#fff" stroke-miterlimit="20" stroke-width="2" d="M0 18C0 8.059 8.059 0 18 0s18 8.059 18 18-8.059 18-18 18S0 27.941 0 18z" clip-path="url(&quot;#fbawa&quot;)"/></g></g></g></svg>